{"title":"Ghost.Rider.Spirit.Of.Vengeance.2011.720p.BRRip.x264.Feel-Free","uid":7301153,"size":2401368658,"categoryP":"video","categoryS":"hd___movies","magnet":"?xt=urn:btih:be4c40c6d47a8006a04effc6d74e46b780d3fc6b&amp;dn=Ghost.Rider.Spirit.Of.Vengeance.2011.720p.BRRip.x264.Feel-Free&amp;tr=udp%3A%2F%2Ftracker.openbittorrent.com%3A80&amp;tr=udp%3A%2F%2Fopen.demonii.com%3A1337&amp;tr=udp%3A%2F%2Ftracker.coppersurfer.tk%3A6969&amp;tr=udp%3A%2F%2Fexodus.desync.com%3A6969","seeders":0,"leechers":1,"uploader":"hiest","files":-1,"time":1338042182,"description":"8888888888                888      8888888888                       \n888                       888      888                              \n888                       888      888                              \n8888888  .d88b.   .d88b.  888      8888888 888d888 .d88b.   .d88b.  \n888     d8P  Y8b d8P  Y8b 888      888     888P&quot;  d8P  Y8b d8P  Y8b \n888     88888888 88888888 888      888     888    88888888 88888888 \n888     Y8b.     Y8b.     888      888     888    Y8b.     Y8b.     \n888      &quot;Y8888   &quot;Y8888  888      888     888     &quot;Y8888   &quot;Y8888  \n\n\nGenre:Action | Fantasy | Thriller \nLanguage:English\nIMDb: &lt;a href=&quot;\nhttp://www.imdb.com/title/tt1071875&quot; rel=&quot;nofollow&quot; target=&quot;_NEW&quot;&gt;\nhttp://www.imdb.com/title/tt1071875&lt;/a&gt;\nSource:1080p.BluRay.X264-SPARKS Thanks!\nEncoder:Tony\n\nFormat : MPEG-4\nFormat profile : Base Media\nCodec ID : isom\nFile size : 2.23 GiB\nDuration : 1h 35mn\nOverall bit rate mode : Variable\nOverall bit rate : 3 340 Kbps\n\nVideo\nID : 1\nFormat : AVC\nFormat/Info : Advanced Video Codec\nFormat profile : &lt;a class=&quot;__cf_email__&quot; href=&quot;/cdn-cgi/l/email-protection&quot; data-cfemail=&quot;5810313f3018146d7669&quot;&gt;[email&amp;#160;protected]&lt;/a&gt;&lt;script cf-hash='f9e31' type=&quot;text/javascript&quot;&gt;\n/* &lt;![CDATA[ */!function(){try{var t=&quot;currentScript&quot;in document?document.currentScript:function(){for(var t=document.getElementsByTagName(&quot;script&quot;),e=t.length;e--;)if(t[e].getAttribute(&quot;cf-hash&quot;))return t[e]}();if(t&amp;&amp;t.previousSibling){var e,r,n,i,c=t.previousSibling,a=c.getAttribute(&quot;data-cfemail&quot;);if(a){for(e=&quot;&quot;,r=parseInt(a.substr(0,2),16),n=2;a.length-n;n+=2)i=parseInt(a.substr(n,2),16)^r,e+=String.fromCharCode(i);e=document.createTextNode(e),c.parentNode.replaceChild(e,c)}}}catch(u){}}();/* ]]&gt; */&lt;/script&gt;\nFormat settings, CABAC : Yes\nFormat settings, ReFrames : 3 frames\nCodec ID : avc1\nCodec ID/Info : Advanced Video Coding\nDuration : 1h 35mn\nBit rate : 3 000 Kbps\nMaximum bit rate : 19.2 Mbps\nWidth : 1 280 pixels\nHeight : 536 pixels\nDisplay aspect ratio : 2.40:1\nFrame rate mode : Constant\nFrame rate : 23.976 fps\nColor space : YUV\nChroma subsampling : 4:2:0\nBit depth : 8 bits\nScan type : Progressive\nBits/(Pixel*Frame) : 0.182\nStream size : 1.93 GiB (87%)\nWriting library : x264 core 75 r1251kMod e553a4c\n\nAudio\nID : 2\nFormat : AAC\nFormat/Info : Advanced Audio Codec\nFormat profile : LC\nCodec ID : 40\nDuration : 1h 35mn\nBit rate mode : Variable\nBit rate : 445 Kbps\nMaximum bit rate : 554 Kbps\nChannel(s) : 6 channels\nChannel positions : Front: L C R, Side: L R, LFE\nSampling rate : 48.0 KHz\nCompression mode : Lossy\nStream size : 304 MiB (13%)\n\nPlot:\nAs Johnny Blaze hides out in Eastern Europe, he is called upon to stop the devil, who is trying to take human form.\n\n\nScreen Shots:\n          &lt;a href=&quot;\nhttp://img262.imageshack.us/img262/5407/vlcsnap2012052607h42m32.png&quot; rel=&quot;nofollow&quot; target=&quot;_NEW&quot;&gt;\nhttp://img262.imageshack.us/img262/5407/vlcsnap2012052607h42m32.png&lt;/a&gt;\n &lt;a href=&quot;\nhttp://img96.imageshack.us/img96/3109/vlcsnap2012052607h43m08.png&quot; rel=&quot;nofollow&quot; target=&quot;_NEW&quot;&gt;\nhttp://img96.imageshack.us/img96/3109/vlcsnap2012052607h43m08.png&lt;/a&gt;\n &lt;a href=&quot;\nhttp://img37.imageshack.us/img37/4230/vlcsnap2012052607h44m10.png&quot; rel=&quot;nofollow&quot; target=&quot;_NEW&quot;&gt;\nhttp://img37.imageshack.us/img37/4230/vlcsnap2012052607h44m10.png&lt;/a&gt;\n &lt;a href=&quot;\nhttp://img213.imageshack.us/img213/4817/vlcsnap2012052607h48m43.png&quot; rel=&quot;nofollow&quot; target=&quot;_NEW&quot;&gt;\nhttp://img213.imageshack.us/img213/4817/vlcsnap2012052607h48m43.png&lt;/a&gt;\n &lt;a href=&quot;\nhttp://img834.imageshack.us/img834/2571/vlcsnap2012052607h43m56.png&quot; rel=&quot;nofollow&quot; target=&quot;_NEW&quot;&gt;\nhttp://img834.imageshack.us/img834/2571/vlcsnap2012052607h43m56.png&lt;/a&gt;\n &lt;a href=&quot;\nhttp://img140.imageshack.us/img140/7784/vlcsnap2012052607h42m42.png&quot; rel=&quot;nofollow&quot; target=&quot;_NEW&quot;&gt;\nhttp://img140.imageshack.us/img140/7784/vlcsnap2012052607h42m42.png&lt;/a&gt;\n\n\n8888888888                888      8888888888                       \n888                       888      888                              \n888                       888      888                              \n8888888  .d88b.   .d88b.  888      8888888 888d888 .d88b.   .d88b.  \n888     d8P  Y8b d8P  Y8b 888      888     888P&quot;  d8P  Y8b d8P  Y8b \n888     88888888 88888888 888      888     888    88888888 88888888 \n888     Y8b.     Y8b.     888      888     888    Y8b.     Y8b.     \n888      &quot;Y8888   &quot;Y8888  888      888     888     &quot;Y8888   &quot;Y8888  ","torrent":{"xt":"urn:btih:be4c40c6d47a8006a04effc6d74e46b780d3fc6b","amp;dn":"Ghost.Rider.Spirit.Of.Vengeance.2011.720p.BRRip.x264.Feel-Free","amp;tr":["udp%3A%2F%2Ftracker.openbittorrent.com%3A80","udp%3A%2F%2Fopen.demonii.com%3A1337","udp%3A%2F%2Ftracker.coppersurfer.tk%3A6969","udp%3A%2F%2Fexodus.desync.com%3A6969"],"infoHash":"be4c40c6d47a8006a04effc6d74e46b780d3fc6b","infoHashBuffer":{"type":"Buffer","data":[190,76,64,198,212,122,128,6,160,78,255,198,215,78,70,183,128,211,252,107]},"announce":[],"urlList":[]}}